<svg xmlns="http://www.w3.org/2000/svg" viewBox="0 0 841.89 416.1"><defs><style>.cls-1{fill:#3f3b3a;}.cls-2{fill:#595857;}</style></defs><g id="Layer_2" data-name="Layer 2"><rect class="cls-1" width="841.89" height="416.1"/></g><g id="레이어_1" data-name="레이어 1"><path class="cls-2" d="M809.58,342.49c.92-.07,2.15-.89,2.92-.15a6.13,6.13,0,0,1-2.92,3.22c-.63.28-1.47.18-2.14.46-1.27.52-1.94,1.85-3.06,2.75a40.14,40.14,0,0,1-3.53,2.3c-1,.68-2.55,2.07-3.83,1.07.11-1.79,2-1.77,2.46-3.22,0-1.07-1-1.19-.92-2.3,2.12-1.86,5.46-3.19,6-7,.23-1.7-1.15-5.36.92-5.52,2.44-.18,1.06,2.46,1.23,3.83.06.56.63.94.91,1.69C808.1,340.92,808.06,342.14,809.58,342.49Z"/><path class="cls-2" d="M794.73,351.68c-.85,2.56-4.58,3.9-7.05,5.52-.76.5-1.37,1.63-2.3,2-1.19.48-2.55.33-3.82.92-2,1-3.55,2.82-5.37,4s-4.38,2.75-6.43,2.91c-2.27.17-6.46-1.29-3.68-3.37a41,41,0,0,1,5.06-2.6c4.35-2.19,10.48-3.66,14.09-6.29,2-1.48,3.88-3.05,5.82-4.28C792,349.84,793.65,351.5,794.73,351.68Z"/><path class="cls-2" d="M768.23,249.2c.49-.13.47.24.76.31-.18,2.18-1.49,3.62-4.29,3.37-1.25-.12-3.43-1-3.52-1.68C760.87,249,766.82,250.35,768.23,249.2Z"/><path class="cls-2" d="M760.72,259.62c1.11.31,6,3.79,4.44,5.36-.86.86-2-.46-3.36-.77-1.88-.41-3.32.09-4.6-.92-1.46-1.14-1.81-3.63-3.37-5.05a6.91,6.91,0,0,0-4.29-1.54c-2.43.27-2.41,3.06-4.59,4.29-2.1-.22-3.33.39-4.91-.15s-2.49-2.71-4-2.91-5.24,2.51-5.82.16c-.47-1.91,2.57-2.54,2.75-3.83s-1.19-3.4-1.84-4-1.54-.63-2.29-1.07-1.39-1.36-2.3-1.84c-3.21-1.67-8.11-1-9.34-3.68-.22-.47.12-1-.16-1.68-.33-.84-1.56-1.11-2-1.84-1.09-1.86-.32-4.62,1.53-4.9,1.68-.25,5,1.82,5.36,3.07.21.65-.14,1.38,0,2.14.18.91,1.53,3.12,2.76,3.21,1.59.14,2.52-2.31,4-3.21a7.57,7.57,0,0,1,4-1.23c1.3.1,2.18,1.13,3.67,1.69,1.07.4,2.41.56,3.68.92,1.11.31,2.07,1,3.22,1.37,3.64,1.33,8,2.1,10,4.45.54.64.53,1.59,1.23,2.3s4.19,1.29,4.29,2.75c.08,1.12-1.46,1.18-1.53,2.3C757.06,257.25,760.19,257.12,760.72,259.62Z"/><path class="cls-2" d="M728.4,351.37a9.79,9.79,0,0,1-3.83,5.37c-1.38,1-5.78,2.9-6.28.15a18.13,18.13,0,0,1,1.22-5.06c1.08-2.14,2.24-.74,4-.46S727,350.29,728.4,351.37Z"/><path class="cls-2" d="M716.45,128.64c.62,1.84,1,3.65,1.53,5.36-1.69,2.11-5,1.33-7.5,2.45-1.17.53-1.49,2.47-2.61,2.76-.9.24-1.6-.78-2.45-.76-2.2,0-3.27,3.68-6,2.75-1.55.92.06,4.45-1.84,4.75-1.35.21-2.09-1.53-2.91-2.6-1-1.3-2.41-2-2.45-3.07s2.2-2.91,2.91-3.67c.87-.93,2.58-2.67,3.67-2.91,2-.45,4.12.19,5.67-.46,1.34-.57,1.42-2.69,2.15-3.22s1.31-.33,1.84-.61a5.57,5.57,0,0,0,2.14-6.13c-.51-1.71-3.35-3.58-1.53-5.67,2.71.29,6.29,3,6.74,5.67.17,1.06-.41,2.11-.31,3.22A14.6,14.6,0,0,0,716.45,128.64Z"/><path class="cls-2" d="M717.06,111.94c-.34.78-1,.62-1.68,1.07s-1.37,1.85-2.14,2c-1.23.23-2.61-1.21-3.84-.92-1.43.34-.59,1.44-1.07,2.75-1.26-.26-3.32-1.66-3.37-3.06,0-.88,1.11-1.42,1.38-2.45.46-1.75-.72-2.63-1.38-4.29,0-.25.15-.26.15-.46,1.5-.31,4.44,2.51,7.82,3.07C715.11,110,716.94,109.81,717.06,111.94Z"/><path class="cls-2" d="M711.4,267.43c.15,1.27-2.07,1.13-2.3.3C709.14,266.75,711.13,266.44,711.4,267.43Z"/><path class="cls-2" d="M700.67,99.08c1.52.8,5.19,2.62,2.61,4.29C701.71,102.79,700.08,100.81,700.67,99.08Z"/><path class="cls-2" d="M693.63,260.69c1.75-.95,3.67-3.05,6.74-2-.68,1.9-3,1.87-4.44,2.76s-2.73,2.42-4.6,2.6a1.41,1.41,0,0,0-.61-.62C690.71,261.73,692.41,261.34,693.63,260.69Z"/><path class="cls-2" d="M689.49,231.89c1.8,0,3.5-.55,4.75.15-.24,3.83-6.18.92-10.11,1.54-.84.12-1.09.77-2,.45a3.33,3.33,0,0,1,2.92-2.75C686.17,231.16,687.85,231.89,689.49,231.89Z"/><path class="cls-2" d="M691,236.64c.17,2.12-2.72,2.35-3.52,4,1.27,1.95,1.76,4.67,3.22,6.43-.07,1.17.23,2.7-.47,3.22-3.08.59-4.74-5-6-6.89-2.36.44-.21,8-3.37,7.05-1.55-.46,0-2.62-.31-4.29-.28-1.47-1.72-1.77-1.83-2.92-.09-.94,1-1.94,1.37-2.91.49-1.38.18-4.06,1.84-4.13.82,0,1.92,1.72,2.45,1.84C686.26,238.41,688.44,236.15,691,236.64Z"/><path class="cls-2" d="M685.35,259.46c-.56,1.16-3.71.61-4-.46C681.91,257.8,685.09,258.16,685.35,259.46Z"/><path class="cls-2" d="M682.44,263.14a3.52,3.52,0,0,1-.61.61c-1.16-.37-2.4-.65-2.75-1.83C679.93,260.65,682.4,261.7,682.44,263.14Z"/><path class="cls-2" d="M678.31,259.31c-.78,1.1-3.48-.09-4.45,1.07-1.59,0-3.19-.06-3.52-1.38.46-1.12,1.91-.35,3.06-.46C675.25,258.38,677.81,257.08,678.31,259.31Z"/><path class="cls-2" d="M656.71,318c0-1.35-.86-2.55-1.08-4-.07-.52.08-1.19,0-1.84-.1-1-.57-1.74-.46-2.3.22-1,1.4-1.12,1.69-2,.48-1.43-.58-1.66-.61-3.37,0-1.21.92-1.8,1.53-3.37.29-.73.3-2.09.61-2.61s2.09-1.2,2.76-1.52c2.35-1.16,4.23-3.3,6.59-3.68.6-.1,1.41.07,1.84,0,1.39-.24,3.13-1.41,5-1.84s3.51-.26,4.91-1.07a12.79,12.79,0,0,0,4.28-4.6c.7-1.68.5-3.1,1.84-3.67.66-.28,1.31,0,2-.16a9.16,9.16,0,0,0,2.76-1.38c1.07-1,1.24-2.52,2.45-3.52a21.25,21.25,0,0,1,3.53-2.29,6.07,6.07,0,0,1,2.44-.62c2.16.19,3.17,3.2,5.52,2.6.84-.21,1.69-2,2.45-3.06,1.11-1.56,1.91-3.67,3.83-4.13,1.55-.38,3.28.59,4.14-.77.19-1-.73-1.54,0-2.15,1.78.11,4.8,2.52,7.5,2.6,1.45.05,4.15-1.58,4.44.62.13,1-1.09,1.76-1.37,2.76-.21.7.3,1.08-.16,1.84-1.24.49-2.56.75-2.6,2.14-.05,1.75,2.47,2.57,4,3.53,1,.65,1.9,1.65,2.45,2s1.22.41,1.53.61c1,.64,1.7,2.11,3.07,2.14,1.56,0,3.11-1.94,4-3.83,1-2.21,1.08-4.88,1.53-7.2.15-.77.7-1.53.92-2.3.59-2.09,1.39-4.92,3.22-5.66,1.82,1.93,2.45,5.7,2.15,8.89,1.22.92,3.37.61,3.67,2.75.1.74-.37,1.69-.31,2.45.11,1.29,1.07,2.42,1.23,3.52.31,2-.34,3.73.61,5.21,1.19,1.88,3.54,1.81,5.06,3.84,0,1.25.47,1.76.76,2.75.14.47,0,1.23.16,1.53.49,1,1.81,1.13,2.29,2,.24.43.17,1.23.46,2,.42,1.13,1.43,2,2.15,3.07s1.82,2.22,2,3.06c.3,1.53-.8,2.58-1.08,3.83-.33,1.52,0,3.49-.6,5.06-.72,1.84-2.47,3.65-3.84,6a20.26,20.26,0,0,1-4.29,5.36c-1,.77-2.11,1.22-3.06,2a43.22,43.22,0,0,0-4,4.13c-1.38,1.46-3,2.57-4.14,3.83-1.57,1.82-2.36,4.76-5,5.05-1.58.18-3,0-4.45.62-2.26.9-3.77,2.56-4.89,2.6s-2.28-1.39-3.38-1.53-2.19.93-4,.92c-.73,0-1.1-.44-2.14-.77-2.19-.69-4.6-.66-4.9-3.06-.18-1.31.83-1.89.76-3.07s-1.21-1.46-1.69-2.45c.3-1.05.35-2.38-.76-3.06a3.1,3.1,0,0,1,.61-2.15,21.58,21.58,0,0,0-3.07,1.23c-1.11.68-1.91,2.22-3.21,2-1.21-.42-.28-1.63-.46-2.6a13.52,13.52,0,0,0-2.6-4.44,21.77,21.77,0,0,0-5.21-2c-4.74-.74-7.75,1.79-11.49,2.15-1,.09-2-.16-2.91,0-3.08.54-6.51,3-8.43,4.6-3.17.31-6.38-.66-9.65.3s-5.11,3.66-10.1,2.91c-1-.85-2.75-1.27-2.76-2.76,0-1.16,1.73-1.92,2.3-2.75a10.93,10.93,0,0,0,1.68-4.29c0-1-.69-2.24-.62-3.52C656.15,320,656.72,319,656.71,318Z"/><path class="cls-2" d="M654.11,254.1c.83-.12,1.45-.73,2.29-.76,1.79-.07,3.55,1.32,5.67,1.07.46.49.14.9.16,1.69,1.79.95,4.73.78,5.66,2.6-1.34,1.42-3.34.4-5.06.15-1.55-.22-3.21-.11-4.9-.31-2.14-.25-4.08-1.43-6.12-1.68-1.24-.16-2.51.18-3.68,0-1.38-.21-6.52-2.15-6.59-3.52s2.31-1.81,4.44-1.54C648.74,252.16,650.57,254.59,654.11,254.1Z"/><path class="cls-2" d="M658.24,243.53c-1.16-.32-2.25-.14-2.75-.46-1-.64-.9-2.48-1.23-3.52s-1.61-1.62-2.3-3.06c-1-2.09-1.43-6.77,1.23-7.2,1.06-.18,2.16.64,2.9.46,1.48-.37,1.22-2.28,2.46-3.07.68-.44,1.93-.26,2.91-.61a6.61,6.61,0,0,0,2.45-2.15c.64-.76,1.14-2,2-2.6s1.83-.64,2.6-1.23c2-1.53,2.08-3.66,3.68-5.51,1.36-1.56,3.51,1.5,3.68,2.76.76,1,2.26,1.21,2.91,2.29-.9,2.7-3.45,2.93-2.91,6.74a10.82,10.82,0,0,0,.92,2.61c.44.9,1.73,1.87,1.68,2.45-.1,1.14-2.41,1.09-2.91,2.3s0,1.18-.15,2.91c-.65,1.25-2.38,1.55-2.92,3.06-.64,1.83.1,4.18-1.37,5.52-1-.05-2.13.88-3.37.76s-2.62-2-4.75-2c-.82,0-1.78.52-2.61.46C659.73,244.4,659.2,243.8,658.24,243.53Z"/><path class="cls-2" d="M648.33,240.12c3.89,0,3.89,6,0,6S644.43,240.12,648.33,240.12Z"/><path class="cls-2" d="M642.61,239.39a6.42,6.42,0,0,1,2.15,3.07c0,1.08-1.68,1-2.15,2.45-.72,2.2.33,4.7-.91,5.83-.7.42-2,.29-3.07.3a44.61,44.61,0,0,1-7.35-6.9,16.59,16.59,0,0,1-2.45-2.75c-.8-1.47-1.08-3.08-2-4.45-.81-1.2-2.28-2.06-3.07-3.36-.64-1.08-.7-2.49-1.37-3.53s-1.71-1.37-2.46-2.15c-.49-.5-.77-1.28-1.22-1.83-1.93-2.31-5.63-3.51-5.82-6.9.78-.89,1.59.34,3.06.62.95.18,2.07-.08,2.76.15,1.39.47,2.35,2.64,3.83,3.83.83.67,1.9,1.13,2.75,1.84s1.58,1.85,2.3,2.29c1,.62,2.38,1,3.68,1.85,1.77,1.12,4.93,2.29,5.36,4.6.1.56-.27,1.53-.16,2,.22.8,1.23,1.15,1.84,1.84.76.85.91,2.13,2,2.3S641.44,239.24,642.61,239.39Z"/><path class="cls-2" d="M570.31,207.22c1.32.44,5.72,5.79,4.44,8.74a3.46,3.46,0,0,1-3.37,1.68c-3-.48-2.45-7.23-1.53-9.95A.77.77,0,0,1,570.31,207.22Z"/><path class="cls-2" d="M468.44,284.74a7,7,0,0,1,2-4c1.42-1,3.33-.94,4.75-1.68a11.83,11.83,0,0,0,3.68-2.76c.74-.95.78-2,1.38-2.76.41-.49,1.34-.62,1.83-1.22s.35-1.54,1.08-2.14c2.13-.91,2.74,3,3.07,5.66a19.57,19.57,0,0,1,.45,2.15c-.22,1.22-1.57,1.47-2,2.3-.1,3.36-1.42,6.28-2.61,9-1,2.39-1.61,5-2.45,7.05-.3.75-.94,1.33-1.22,2-1.11,2.61-1.51,6.7-3.53,7.82a16.36,16.36,0,0,1-4.29,1.07,4.38,4.38,0,0,1-4-3.06,22,22,0,0,1-.15-2.76c-.19-1.23-.92-2.28-.77-3.68.34-3.12,3.38-4.63,3.53-7.2C469.32,288.63,468.23,286.7,468.44,284.74Z"/><path class="cls-2" d="M394.61,66.75c.17,2.57-3.93,2.25-4.45,4.45-.23,1,.48,2.32.31,3.21-.31,1.61-1.87,1.14-3.83,2-1,.43-2,2-3.06,2.14s-1.63-.59-2.3-.46c-1,.19-.67,1.42-2.15,1.68-1.17.21-3.23-1-3.37.47-.09,1,1.85,1.49,3.07,1.37,1-.09,1.67-.75,2.6-.76,1.81,0,3,1.34,4.14,1.38,2.63.07,5.21-2.43,8-2.15,1.24.13,2,1,2.9.92,1.48-.14,2.74-1.84,3.83-2.45-.46-2.58.05-6,2.46-6.13,1.65-.1,4.14,2.83,4.44,0,.13-1.23-1.31-2.32-2.3-2.3s-2,1.75-2.76.31c0-1.4,1.58-1,2.45-1.38.65-.26,1.11-1,1.84-1.22,3.64-1.29,8.7,1.25,10.11-1.84-3.23-2.76-8.74,1-12.41.76-1.56-.1-3.63-1.26-4.13-2.75-.16-.48,0-1.11-.16-2s-.64-2-.61-2.61c.16-2.77,7.05-3.29,7.05-6.74-1.32-1.26-5.18-1-6.44.31-.45.48-.43,1.47-1.07,2.45-1.37,2.09-5.81,2.34-7.2,4.9a5.48,5.48,0,0,0-.61,3.06C391.29,64.84,394.5,65.23,394.61,66.75ZM358.15,216.57c-4.42-.65-8.93,1.13-11.95,2.45-1.75.76-3.52,1.92-5.06,2s-2.88-.77-4.28-.92a24,24,0,0,0-6,.31c-1.76.31-3.35,1.57-4.9,1.68-3,.23-5.8-2.67-7.66-4.13-1.14-.89-2.3-1.62-3.37-2.45s-2.63-1.44-3.52-2.3c-1.21-1.17-1.21-3.2-1.84-4.75-.75-1.82-3-3.17-4.75-4.9-1.3-1.3-4.27-3.23-4.6-4.9-.16-.85.37-1.83.31-2.76-.08-1.34-1.09-2.1-1.07-3.06,0-1.35,1.61-2.39,2-3.53.19-.58.1-1.4.3-2.14.43-1.56,1.46-2.48,1.23-4.75-.09-.91-.87-1.73-.92-2.91,0-.8.53-1.25.46-2-.12-1.31-1.81-1.56-2-3.07s1.48-2.83,2.45-4.59c.44-.79.68-2,1.07-2.6.86-1.31,2.26-1.94,2.91-3.22.48-.95.64-2.36,1.08-3.07.56-.91,1.68-1.4,2.75-2.6.87-1,1.23-2.16,1.84-2.6a14.46,14.46,0,0,1,2.76-1.07,12.1,12.1,0,0,0,6.28-5.68c-.42-2.46.21-3.5,1.22-5.2s1.63-3.08,3.22-4c1.92-1.08,3.72-1.18,5.05-3.21a9.58,9.58,0,0,0,1.69-3.83A4.24,4.24,0,0,0,330,129.1c-1.38-.22-3.51,1.05-4.29-.46-.24-.48.1-1.61,0-2.14-.18-1-1-1.71-1.07-2.45-.07-1.44,1.42-2.94,1.84-4.6.57-2.26,0-4-.16-6.59,2.15-3.37,6.9-1.7,11.65-1.38.71,0,1.53-.17,2.3-.15,2.81.07,5,.92,6-1.53a16.58,16.58,0,0,0,.46-5.21,11.85,11.85,0,0,0-3.22-4.29c-1.52-1-3.73-.54-4.6-2.29.71-3,4.1-.51,6.13-1.23,1-.37.92-2.16,1.84-2.45.63-.2,1.43.63,2.3.61a15.56,15.56,0,0,0,4.14-1.84c1-.66,1.28-2,2.14-2.6.58-.39,1.35-.34,2-.61a11.67,11.67,0,0,0,3.83-2.76c1.27-1.52,1.83-3.4,3.37-3.68,2.05-.37,6.7.41,7.05-1.84s-1.89-3.82-1.07-6.13c.64-1.82,2.28-1.5,4.59-2.6,1.12.79.8,3.06.92,4.45,1.42,0,4.32-.43,4.59-1.69.35-1.58-2.07-3.18-2.6-4.14s-.69-2.84-1.84-3.06c-2.33-.45-4.6,3.22-7.5,3.22a5.14,5.14,0,0,1-4.45-2.91,13.33,13.33,0,0,1-.15-2.46c-.19-1.25-.94-2.55-.61-4.28,1.17-2,3.87-2.34,5.82-3.38.74-.39,1.33-1.22,2.14-1.53,1.38-.5,3.41,0,4.75-.76.86-.49.62-1.32,1.23-2.3.38-.62,1.32-1,1.84-1.68.36-.5.4-1.24.76-1.69,1.33-1.66,3.76-2.27,4.75-4,.44-.76-.75-1-.46-2.15.5-1.07,2.41-.28,3.52-.46,1.53-.23,2.94-2.09,4.6-2.45s3.6-.14,5.21-.76c1-.37,1.85-1.25,2.76-1.38.32-.05,1.22.17,1.68.15s1.22-.38,2-.46c1.13-.11,2.53.28,4,.31,2.42,0,4.72-.73,6.74.15,1.05.46.93,1.66,2.29,2.14.69.25,1.59-.09,2.61,0,1.5.15,3.06,1.18,5,1.38.71.07,1.44-.08,2.15,0,2.18.27,4.59,1.42,6.74,2.15,1.79.6,5.6,1.36,5.67,3.06.08,2-3.31,2.6-4.75,2.6-2.41,0-5.61-1.4-8.12-.61,0,3.47,3.78,6.09,7.2,5.67.3-1.63-1.94-.72-1.69-2.3,1.53-1.15,3.36.78,5.52.46.84-.22.7-1.44.91-2.29,1.83-1.11,4.11-2.74,6.9-1.54a1.38,1.38,0,0,1,.61-.61c.18-1.68-1.83-2.56-.76-4.14.53-1.08,3.39-.71,3.83.16.22,1-.71.92-.62,1.84A2.48,2.48,0,0,0,450.82,49c1.51-.08,1.81-1.43,3.22-2.15.57-.29,1.41-.32,2.15-.61s1.6-1,2.29-1.23c.51-.13,1.28,0,2-.15.9-.2,1.86-.92,2.6-.92.92,0,1.58,1.07,2.76,1.23.64.08,1.36-.37,2.29-.46.76-.09,1.53.09,2.15,0,1.46-.22,2.47-1,3.68-.92.85,0,2.32,1.19,2.91.61,1-1-1.33-1.71-.61-2.61,2.35.18,4.84.13,7.2.46,3.5.5,6.79,2.24,10,2.3-.3-2.13-2.73-1.51-3.83-2.45a8.87,8.87,0,0,1-1.68-3.22A18.52,18.52,0,0,1,490,35.2c1.35-1.27,5.78-1.26,7,.46.86,1.17.58,2.94,1.83,2.91,1.09,0,1.66-2.69,2.92-2.76,1-.05,1.56,1.71,2.6,1.69,1.27,0,2.15-2.39,3.83-2.46.9,0,1.21.47,2.6.62,1-.62-.32-1.43.16-2.3,1.71-1.25,5.62-.3,7.81-1.07.61-.73-.78-1.25-.15-2,1.88-1.31,5.06-1.43,8.27-2,2-.34,3.82-1.71,5.36-1.85s3.14.95,4.59.93a8.63,8.63,0,0,0,2.76-.62c.86-.33,1.45-1.17,2.3-1.38,1.35-.33,3,.16,4.6,0s3.09-.8,4.29-.61,2,1.37,3.06,1.53c3.23.51,6.56-.48,9.5.31.52.14,1.05.69,1.68.92,2,.72,3.31.5,3.68,2.91,1.55.55,2.46,2,4.29,2.45,1.22.32,2.45-.15,3.83-.15a43.89,43.89,0,0,1,5.66.3c.88.14,1.61.78,2.46.92.62.1,1.44-.06,2.14,0,1,.09,1.82.49,2.6.46,1.61,0,2.83-1.48,4.14-1.68a11,11,0,0,1,2.3.3c2.58.22,5.55-.33,7.66.16a15.24,15.24,0,0,1,4.29,2.45c.9.68,1.44,1.78,2.29,2.29s2.85,1.37,3.68,1.23,1-1.25,2-1.68c3-.68,8.43,1,10.88-.16,1-.43.76-1.44,1.53-2,4.6-.22,9.18.19,13.48.31,1.51,0,3.08-.39,4.45-.16s2.62,1.79,4.13,2.3c1,.34,2.77.17,4.29.46,1,.2,1.85.81,2.6.92a20.88,20.88,0,0,0,4.76-.31c3.51-.28,8-.46,11.48.93,1.85.73,2.62,2.23,4.6,2.44,2.83.32,7.21-.23,10.11,0a17.5,17.5,0,0,0,1.83.31c1-.07,1.57-.89,2.76-.92,1.52,0,3.93,2.37,6.13,2,1-.64-.76-1.53.15-2.14s2,0,3.37,0c.73,0,1.62-.37,2.3-.31,1.69.15,3.28,1.66,5.36,2.15a19.07,19.07,0,0,0,6,.3c1.47-.16,2.73-.65,4.14-.46.67.1,1.28.59,2,.77s1.3,0,1.84.15,1,.62,1.54.77c2.84.81,6.64,1.22,9.65,2.14,1.77.55,3.58,1.65,5,1.69.73,0,1.37-.32,2.3-.31,4.63,0,10.07,2,9.65,6.28-5.42,1.19-10-3.73-15.63-2.29A2.43,2.43,0,0,0,735,54.5c.21,2.67,6.93,2.44,7.5,5-1.1.83-2.31.05-3.22.16a11.13,11.13,0,0,0-4.59,2.45c-1,1-1.95,3.46-3.06,3.68-1.37.26-3.46-1.35-5.52-.92-.76.15-1.48,1.09-2.14,1.22-1.69.32-3.85-.92-4.9,1.07.56,1.4.22,3.35,1.38,4.14.74.51,1.68.12,2.6.46,1.07.4,1.67,1.71,2.6,2.45.76.6,1.57.62,2,1.38.1,1.13-.44,1.25-.3,2,.24,1.29,2.24,1.58,2.29,2.45.07,1.11-1.26.87-1.52,2-.1.71.82.9.91,1.84.06.63-.5,1.28-.45,2,.06,1,.87,1.7.76,2.61a2.38,2.38,0,0,1-1.38,1.68c-2.94-1.88-5.58-4.48-8.73-6.89s-8.36-5.52-8.89-10.72c0-.8,1.69-1.43,2-2.61.13-.48-.19-1.17-.15-1.84.11-1.79,1.6-3.52,1.54-4.59s-2.26-3.35-3.38-3.68c-.89.47,0,1.4-.15,2.15a3,3,0,0,1-2.3,2.14c-2.9.25-3.22-3.73-7.81-2.6a3.87,3.87,0,0,0-2.45,4.29c.13.67,2,1.39,1.84,2.29s-4.18,1.15-5.06,1.08c-2.47-.2-3.74-2-6-2-1.1,0-2.06.92-2.92,1.08-4.82.88-12-2.38-13.62,1.83-.24.6-.11,1.38-.31,2a22.35,22.35,0,0,1-1.23,2.14c-.19.47-.15,1.41-.46,2.15s-3.18,3.28-.61,4c.61.16.9-.26,1.69-.15,1.31.17,3.5,2.29,5,2.29.92,0,2.2-1,2.91-1.07,1.42-.07,2.44.85,3.52,1.38s2.61,1.57,3.37,1.53c1.45-.07.76-1.08,2.15-1.53,2.65.78,3.89,3.59,6.43,5.82.92.8,2.28,1.5,3.52,2.6.7.62,2.83,2.28,2.92,3.07s-.6,1-.77,1.68c-.25.94.33,1.62-.31,2.3-2.44-.9-3-3.31-4.75-5.36-.65-.76-1.3-1.67-2.29-2.76-.45-.49-2.08-2.21-3.07-1.84-1.93.74,1.06,3.66,1.53,4.29,1,1.35,2.37,3.17,2.46,4.6.06.91-.6,2.57-.62,4.14,0,1.05.27,2,.16,2.9a20.66,20.66,0,0,1-1.08,2.92c-.36,1.12-.44,2.46-.76,3.21a5.79,5.79,0,0,1-4,3.07c-1.27,0-1.82-1-3.06-.92-1.89.09-2.23,1.82-3.37,3.21.1,1.51.57,2,.31,3.07-.42,1.62-2.67,1.9-2.61,3.52s2.07,1.79,3.07,2.45a25.9,25.9,0,0,1,5.05,4.6c.86,1.09,2.09,3.13,2,4.29-.12,1.51-4.48,3.62-6.29,3.06s-1.13-2.17-1.53-3.68c-.31-1.16-1.22-1.66-1.68-2.6-.24-.49-.13-1.28-.46-1.84-.93-1.56-2.54-.7-4.45-1.68-1.25-.65-.88-2-1.38-3.22-.65-1.65-3.43-2.43-5.66-2-1.64.32-2.15,1.69-3.68,2-2.25-1.33.46-4.62-2.3-4.9-2.11-.22-3.51,3-4.75,4-.83.64-2.35.77-2.44,1.68-.19,1.69,1.78,1.35,3.36,2s1.6,2.21,2.91,2.29c1.1.08,1.83-1.13,2.91-1.22a7.6,7.6,0,0,1,4.6,1.38c-.77,1.86-4.89,3.22-4.9,5.67,0,1.42,1.64,1.66,2.91,2.6,1.07.79,2.48,3,4,4.6.65.67,1.7,1.11,2,1.53.7,1,.59,2.24,1.37,2.91.13.84-.38,1-.31,1.84.38,1.1,2.08.89,2.46,2-.32,2.64.78,5.13-1.38,6.13-1,4.74-2.12,8.44-5.36,11-2.91,2.31-6.76,3-10.27,4.13-.91.29-1.64,1.25-2.45,1.53-2,.7-5.67.27-5.82,2.76-.08,1.23,1.56,2,1.69,3.22.19,1.91-1.53,3.84-2.76,4-.89.1-2.81-.52-2.91-2.15-.12-1.82,2.26-2.57,2.45-3.67.32-2-1.68-3.85-4-3.68-2,.15-6.63,4.22-6.74,6.44-.09,1.66,3.29,5.11,4.44,6.12,4.3,3.79,8.87,6.07,8.12,15.32-1.08,2.35-3.83,2.85-6,4.14-1.63,1-2.45,4-5.21,4.29-1.1-.38-.46-2.11-.76-2.91-.42-1.1-2.61-1.64-4-2.76-1.13-.92-1.6-2.37-2.46-3.22-1.07-1-2.67-1.27-4-2-.82-.45-1.47-2-2.3-2-1.35.06-.88,1.36-1.22,3.52s-1.9,3.77-1.38,6.28c.22,1,1.5,1.86,2.14,2.91,1.06,1.74,1.21,3.76,2.3,4.75.72.66,1.94.8,2.76,1.38,1.62,1.16,4.48,3.68,5,5.06.67,1.61,0,3.51.46,5.21.51,2,3.08,3.36,1.54,5.36a16,16,0,0,1-8.43-6.59,13.71,13.71,0,0,1-1.23-1.84c-.53-1.37-.41-2.93-.91-4.59a14.3,14.3,0,0,0-3.38-4.91c-1.07-1-3-1.6-3.06-3.06-.11-2.06.7-4.47.62-6.89,0-.53-.38-1.05-.46-1.69-.16-1.17.12-2.61-.16-3.68a16.45,16.45,0,0,0-1.38-2.75,30.17,30.17,0,0,1-1.22-2.91c-.62-1.77-1.32-5.19-2.76-5.37s-3,2.88-5,2.92a2.82,2.82,0,0,1-2.61-1.84c-.19-.94.49-1.89.46-2.91-.05-2.06-1.51-2.85-2.6-4.29-.44-.59-.56-1.41-.92-1.84-.7-.83-2-1.3-2.91-2.14a12.36,12.36,0,0,1-2.15-2.76c-.59-1.2-.78-2.76-1.68-2.91s-1.86,1.08-2.76,1.38a25.45,25.45,0,0,1-4.14.76c-3.07.22-5.57-.6-5.2,3.07-.48,1.64-2.22,1.66-3.38,2.45-1.46,1-2.53,3-4.13,4.59-.78.78-1.9,1.27-2.6,2s-.77,1.57-1.39,2.15c-1.63,1.54-4.08,1.67-5.2,3.83-.06,2.55,1.2,4.47.92,6.89-.13,1.1-1,2.08-1.08,3.22-.09,1,.4,2,.16,3.06-.13.56-.75.85-1.23,1.53s-.59,1.43-.91,1.84c-.52.66-1.37,1.12-1.85,1.69-.77.92-.94,1.58-1.68,1.68-3.36.49-4.18-5.9-5.67-8.58-.68-1.23-2.07-2.34-2.76-3.83-.78-1.71-1-3.87-2.14-5.82a38,38,0,0,1-2.91-5c-.55-1.46-1-3.29-1.53-4.9a26.29,26.29,0,0,1-1.23-5.21c-.13-2,.38-3.22-1.23-4-1.47.35-2.13,1.84-3.82,1.84s-6-2.83-4.75-5.36c-1.07-1.52-3.76-2.35-5.82-4.14-1.18-1-2.24-3.46-4.29-3.67a10.4,10.4,0,0,0-1.84.31c-1.3.11-3.59-.12-5.06,0a32.64,32.64,0,0,1-6.43.3c-1.5-.16-3.36-.45-4.9-.61-2-.2-4.57-.67-5.66-1.69-.68-.62-1-2.63-2.15-2.91-1.42-.32-2.21.77-3.52,1.08-2.81.64-5.16-.58-7-1.84-1.35-.9-2.58-1.36-3.53-2-2.33-1.56-2.74-6.25-6.28-6.29-1.23,0-3.19.76-3.37,2.15-.12,1,1.17,2.79,1.69,3.53,1.72,2.42,4.87,3.33,5.82,6.58.63.25,1.93-.56,2.6.15.6,1.4,0,4,1.38,4.6,6.37,1,8.19-2.44,11-4.9,1.65,1.08,1.11,2,1.69,3.21a5.05,5.05,0,0,0,2.6,2.61c.77.29,1.76,0,2.91.46.73.27,3.75,3.13,3.84,4.14s-2,4-2.62,4.74-1.54,1.15-1.83,1.84c-.22.53-.15,1.65-.31,2-.28.61-1.66,1.41-2.45,2.14a32,32,0,0,1-2.6,2c-1,.74-1.57,1.76-2.61,2.14-2,.75-4,.43-5.66,1.54-1.11.72-1.12,2.34-2.45,3.21s-3.8.92-5.83,1.84c-1.3.59-2.08,1.74-3.21,2.14-.46.17-1,0-1.54.16-1,.26-1.95,1-2.91,1.22-.75.2-1.55.1-2.3.31-2.36.68-4.52,3.08-6.89,1.68-1.12-2.58-1.3-5.83-2.6-8.12-.67-1.16-2-1.52-2.45-2.75-.07-1,1.12-.72,1.22-1.53-.39-1.66-1.95-2.43-2.91-3.84-.47-.68-.68-1.66-1.22-2.44-1.83-2.66-5.43-4-6.13-7.36-.19-.9,0-1.61-.15-2.3a8.76,8.76,0,0,0-1.84-3.21c-.59-.68-1.78-1.15-2.45-2.15a22.79,22.79,0,0,1-.92-2.29,25.45,25.45,0,0,0-6.13-7.36c-1.25.18-2.59.27-3.22,1.08a23.8,23.8,0,0,0,2.61,5.36,31.64,31.64,0,0,1,2.91,4.9c.24.64.19,1.47.46,2.14,1,2.43,4,3.18,4.59,6,.41,1.88-.09,3.18.46,5.05s3.19,2.87,4.29,4.6c.9,1.41.91,3.4,1.53,4.75.92,2,3.49,2.81,5.37,4.13,1.68,1.19,2.89,3,4.28,4.29.82.75,1.95.88,2.15,1.69.26,1-.44,1.38-.62,2.29,1.18,1.23,2.32,3.49,4.29,3.68.81.08,1.83-.74,3.07-.92.62-.09,1.32.1,1.83,0,.82-.15,1.53-.87,2.46-1.07,1.56-.34,3.38-.2,5.36-.46s3.16-1.83,4.59-1.38c1.58,1.73.45,3.69,0,5.36-.15.59-.15,1.2-.3,1.69-.82,2.73-3,4.75-4,7.2-.3.75-.25,1.67-.6,2.45-1.14,2.45-3.52,4.88-5.37,6.89A29.45,29.45,0,0,1,475,227.9c-1.1.91-2.44,1.4-3.68,2.3a33.37,33.37,0,0,0-6.74,6.74,32,32,0,0,1-1.69,2.76c-1,1.12-2.54,1.67-3.36,2.76a30.47,30.47,0,0,0-1.84,4c-.85,1.75-2.61,2.94-2.3,5.36.12.93.95,1.51,1.23,2.46.47,1.63.11,3-.16,4.74.87,2.1,1.49,4.44,3.07,5.82.18,3.1-.26,6.11,0,8.73.16,1.68.81,2.91.15,4.45a14.44,14.44,0,0,1-4.14,4.59c-1.44.93-3.66,1.18-5.21,2.3-1.07.78-2,2.15-3.06,3.07-1.81,1.51-4.28,2.91-4.44,4.44-.09.88.69,2.21.92,3.06.59,2.26,1.18,5.52.15,8-1.11,2.65-6.73,2.1-7.35,4.9-.19.85.37,1.53.3,2.45a20.55,20.55,0,0,1-1.53,4.44c-.68,1.27-2.22,1.84-3.21,2.91-1.26,1.36-1.89,3.33-3.22,4.75a46.5,46.5,0,0,1-6.59,5.67,19.29,19.29,0,0,1-8.88,3.22c-1.86.13-3.86-.44-5.82-.16-.72.11-1.5.77-2.46.92-.55.09-1.11-.09-1.68,0-1,.16-1.86.93-2.76.92-2,0-4.53-2.39-4.59-4.74,0-.91.78-1.78.76-2.61,0-1-1.21-2.21-2.14-4s-1.25-3.65-2.15-5.05-2.2-2.21-2.91-3.38c-1.41-2.35-1.51-5.14-2-8-.15-.92-.78-1.92-.92-3.06-.16-1.41.17-3-.15-4.14-.25-.89-1.24-1.8-1.84-2.91-1.08-2-1.84-4.58-2.75-6.12s-2.61-3-2.76-4.6a22.88,22.88,0,0,1,.3-4.29c.17-1.07,1-1.92,1.23-3.06.17-.75,0-1.62.15-2.45.78-3.5,4.64-4.78,4.14-9-.22-1.81-1.49-2.7-1.69-4.75-.09-1,.48-1.8.46-2.76,0-1.29-1.12-3.21-1.68-4.44-1.55-3.38-2.51-6.47-4.75-9-1.22-1.39-2.82-2.38-3.83-3.67a9.9,9.9,0,0,1-1.84-3.83c0-.88.67-1.42.92-2.3.32-1.13.34-3.27.77-5.06.19-.82,1.08-2.8.92-4.13a6.43,6.43,0,0,0-3.68-4.14c-2.14-.53-4.34.69-7,.46C361.34,220.92,361.51,217.06,358.15,216.57Zm84.71,54.84c.71-1.12,1.6-4.29,0-5.05h-.31C441.87,267.63,441.14,270.7,442.86,271.41Zm-2.15-32c.52-1.06,1.74-2.18,1.53-3.52-.44-3-6-1.49-6.58.62-.42,1.41.25,2.54-.31,4,.6,1.13,2.12,1.36,4,1.22C440.37,241.24,440.24,240.37,440.71,239.39Zm-9.34,15.79c.61-1.13-1-1.86-1.23-3.07-.3-1.41.35-3.07-.92-3.83h-.45C427.66,250.79,429.23,254.93,431.37,255.18ZM535.84,103.06c-.57-1.16-2.23.34-1.53,1.38C535.35,104.5,535.72,103.91,535.84,103.06Zm-35.69,6.28c2.49-.48,0-4.45-1.84-4C495.87,106,498.46,109.67,500.15,109.34ZM488.82,129.1c.76-5.31-3.38-5.71-4.14-9.5.35.05.17-.44.46-.46,1-.48,2.53.78,3.06-.45,0-1.82-2.29-3.17-4.6-2.3-.66-.46-.75-1.49-.91-2.45-1.74-1-6-3.3-6-5.37.05-1.7,2.25-2.65,4.75-2.6,1.06-.8.38-3.26-.61-3.83-4-.87-6.07-.28-8.58,1.53-1.2.87-2.55,1.47-3.22,2a3.88,3.88,0,0,0-1.37,2.44c.09,1,1.45,1.51,2,2.76.27.65.21,1.46.46,2,.67,1.48,2.38,2.44,3.67,3.68.92.88,3.48,2.78,3.53,3.83,0,.87-.79,1.07-1.07,2a11.57,11.57,0,0,0-.46,3.83c.33,1.68,2.08,1.74,3.67,2.45s3.11,2,4.75,2A6.44,6.44,0,0,0,488.82,129.1Zm-36-11c4.15-.75,2.25-4.26.15-5.51-1.6-1-3.5-1.78-5.36-2.91-1.08-.66-5.18-1.9-5.21-3.22s3.05-1.91,1.84-4.44c-2.1-.51-7.09.29-6.74,2.6.2,1.33,1.78.6,2.14,2-1.5.54-3.33,1.94-4.9,1.69-1.88-.29-2.36-2.6-3.37-4-1.46,0-2.42-1.41-4.14-1.22s-2.75,2.81-3.67,4.14c-.49.69-1.27,1-1.54,1.68-.15.38,0,1-.15,1.53-.52,1.7-2,2.33-1.84,3.83.15,1.33,1.59,1.92,1.69,3.07-.1,1.17-2,.56-1.84,2,2.74,2.26,2.89-1.07,4.29-1.53,1.12-.38,3.32.3,4.75,0,1.15-.26,2.05-1.35,3.37-1.84a9.57,9.57,0,0,1,2.91-.62c4.87-.2,8,3,12.25,3.07A33.76,33.76,0,0,0,452.82,118.07ZM443,136.15c.09-1.65-.63-2.88-.77-5.21-2.82-1.7-4.94,1.58-7.81,1.22-1.76-.22-3-2.27-4.9-2-1,.15-1.54,1.48-2.6,1.68-2.19.4-3.19-1.75-5.52-.92-3.28-2.5-4.74-6.57-5.51-11.18-1.79-2.35-4.52-.44-5.82,1.07-.81,0-1.81-.45-2,.46-.61,2.83,4,3.13,4,5.06,0,1.24-1.8,1.13-2.61,2s-.28,1.72-1.37,2.3c-3,.37-4-1.29-4-4-1.3-2-3-3.42-4.13-5.05a6.33,6.33,0,0,1-1.23-2.46c-.11-.71.34-1.62.16-2.45-.34-1.46-3.06-2.56-4.75-3.37s-4.08-1.67-5.37-2.75c-.9-.77-1.33-2.1-2.14-2.61s-1.53-.34-2.15-.76c-.84-.59-.7-1.57-1.83-1.84-.58-.22-1.47.57-1.84,1.07-.75,3.34,2,3.57,3.21,5,.86,1,1.28,2.55,2.15,3.22s2.18.59,3.37,1.07c.82.34,1.35,1.36,2.14,1.84,1.47.89,3.81,1,4,2.76-.91.62-3-.9-3.68.61-.18,1,.79,1.51.77,2.45,0,1.51-1.72,3.16-3.22,2.92-.15-.9.8-1.64.77-2.61-.07-1.95-4-4.93-6-5.82-.93-.42-2.06-.44-2.91-.92a21.89,21.89,0,0,1-5.05-4.14c-1.1-1.45-2-4.13-4.45-4-1,.06-1.79,1-2.6,1.38a23.39,23.39,0,0,0-2.3,1.22,5.34,5.34,0,0,1-2.45,1.23c-1.92.08-3.56-1.43-5.21-1.07a4.42,4.42,0,0,0-1.68,1.22,23.7,23.7,0,0,1,.15,2.45c-.5.87-2,.81-3.06,1.38-1.59.84-3,2.56-4.29,3.83-.83.82-1.58,1.5-1.69,2.15-.08.5.43,1.46.31,2.14a7.21,7.21,0,0,1-2.45,2.91c-.54.37-1.26.42-1.84.77-1.21.71-1.75,1.65-2.76,1.84-2.67.49-7.54-.54-7.5,2.29,0,1.9,2.58,1.91,4.13,1.84,2.17-.08,4,.46,5.21.16.83-.21,1.73-1.14,2.6-1.54.55-.24,1.12-.25,1.54-.46.91-.46,1.43-1.2,2.14-1.53a18.78,18.78,0,0,1,5.51-1.22c2.07-.12,4.23.21,6.9,0,1-.08,1.89-.69,2.91-.77,1.67-.13,3.86.66,5.21.61.93,0,2-.93,3.06-.92a3.13,3.13,0,0,1,2.76,1.69c.13.45-.26,1.16-.15,1.84.17,1.11,1.13,1.57,1.07,2.3-.08,1-2.47,2.24-2.15,3.37.22.72,1.93,1.48,2.76,2a9.9,9.9,0,0,0,3.37,1.37c.87.1,1.63-.24,2.45-.15a12,12,0,0,1,4.29,1.54c1.44,1,1.24,2.63,2.91,3.21.71.25,2,.11,2.91.31,2.23.48,3.89,2.33,5.52,2.14,2.56-.3,1.39-2.71,1.68-4.44.66-3.91,8.3-3.73,9.81-1.07,1.11.29,2.09,0,3.37.46.73.24,1.28,1,2,1.22a18.81,18.81,0,0,0,2,0c2.94.34,5.6,2.52,8.12,2.15,1.6-.24,2.76-1.74,4.29-1.84,2.93-.18,4.8,2.18,8,1.07,2.33-.82,1.81-3.23,2.61-5.67C441.88,138.58,443,137.43,443,136.15ZM608.15,83.91a5.5,5.5,0,0,0-1.54-5.21c-1.76.31-.49,2.15-.61,3.22-.17,1.52-1.79,2.58-1.68,4.14-.59.69-1.6,1-1.69,2.14,1,.67,1.4-.53,2.15-1.23C606,85.87,607.74,85.23,608.15,83.91ZM568,30.75c-1.68,0-2.32.67-3.37,1.23-.57.31-1.75.48-1.37,1.38C564.74,33.18,567.66,32.52,568,30.75ZM503.37,49.6c3.6.84,5.29-3.23,2.91-5.52-.56-.53-2.44-.74-3.21-2-.94-1.49-.81-3.49-3.07-3.06,0,.18,0,.43-.16.46-.21,3.35,4.67,4.19,4.6,6.89C504.4,47.79,502.91,48,503.37,49.6Z"/><path class="cls-2" d="M453,43.78c-.45-1.66,2.69-1.39,2.14.15C454.62,44.39,453.28,44.35,453,43.78Z"/><path class="cls-2" d="M434.13,135.38c.07-1.26,2.95-1.73,3.52-.61C437.46,136,434.72,136.85,434.13,135.38Z"/><path class="cls-2" d="M381.59,127.11c1.59-1.29,5.15-.42,7.35-.46-.41,1.17-.48,2.69-1.38,3.37C385.05,129.57,382.71,129,381.59,127.11Z"/><path class="cls-2" d="M370.4,119c2.11-2.2,4.32-1,3.53,3.22-.51,1.26-2.7,3-3.68,1.07A16.31,16.31,0,0,0,370.4,119Z"/><path class="cls-2" d="M373.47,114.09a2,2,0,0,1-1.08,2.3C370.38,116,371.91,112.41,373.47,114.09Z"/><path class="cls-2" d="M343.75,83a2.59,2.59,0,0,0-1.38-2.45c-.5-.28-1.27-.15-1.84-.46-1.49-.82-2-2.53-2.91-2.91.11-1.68-.46-2.89,0-4A9.09,9.09,0,0,1,341,70.28c1.34-.47,2.74,0,3.53-1.07a1,1,0,0,1,.76.15c0,1-.82,1.12-.92,2,.19,1.39,2.64.52,2.91,1.84-.23,1.43-1.52,1.71-1.53,2.75s1.85,2.64,2.76,3.83c.67.89,1.84,1.55,2.45,2.46s.64,1.73,1.07,2.14c.8.76,2.62.89,2.76,2,.18,1.46-1.82,2-1.53,3.68-2.11,1.65-5.62.79-9,1.22-1.56.2-3.27,1.74-4.91.46-.37-1,1.37-1.16,1.54-2.14-.12-.9-1.27-.78-1.54-1.53.45-1.19,1.84-1.44,1.69-3.22C341.85,83.9,343.49,84.25,343.75,83Z"/><path class="cls-2" d="M332.26,79.31c2.05-1.25,5.62-.29,5.82,1.23.15,1.15-1.09,1.32-1.53,2.6s.07,2.57-.46,3.38-1.74.65-2.61.91c-1.92.58-5.64,2.84-7.2.31.23-1.36,1.54-1.63,2-2.75,0-.89-.92-1.36-.77-2.3.19-1.16,1.06-.76,2.3-1.23C330.71,81.12,331.1,80,332.26,79.31Z"/><path class="cls-2" d="M227.63,46.07c.32,1.37-4,3.14-4.44,1.38C222.86,46.05,226.52,44.29,227.63,46.07Z"/><path class="cls-2" d="M222.58,391.35h-2.3A3.62,3.62,0,0,1,222.58,391.35Z"/><path class="cls-2" d="M215.68,35.2a.75.75,0,0,1,.92,0c-.15.36-.27.75-.92.61Z"/><path class="cls-2" d="M202.05,59.55c0,.85-3,2.24-3.37.62a1.2,1.2,0,0,1,.61-1.23C200.11,58.44,202,58.73,202.05,59.55Z"/><path class="cls-2" d="M138.32,201.86c-.08.23-.22.39-.3.62C136.39,202.42,137.86,200.34,138.32,201.86Z"/><path class="cls-2" d="M76.13,94.79c1.08-.63,2.1.94,1.38,1.68C76.33,96.7,76,95.35,76.13,94.79Z"/><path class="cls-2" d="M243.1,100.45c-.71-.17-1.69-.14-2.6-.3s-1.71-.37-2.45-.46c-1.89-.23-3.94.32-5.06-.77A50.31,50.31,0,0,1,239.58,92c.7-.62,2.2-1,1.84-2.3-1.3-1.14-2.9.07-4.14.77a14.29,14.29,0,0,1-4.29,2c-2.53.38-5.89-.74-8,.61-.29,1.16,2.36.71,2,2.45a3,3,0,0,1-2.76-.46c-.71-.64-.3-1.6-.76-2-.79-.65-3.74-.83-5.06-.61-1.61.26-3,1.23-3.22,2.6,1.94.91,5.13-.93,5.83,1.38-1.06,1.91-3.56,3-3.22,5.52a3.46,3.46,0,0,0,2.14,2.45c.85.15,1.33-.69,2.15-.62s.67,1.08,1.68.92c1.48-.63,2.29-2.7,4-2.6,2,2.46-1.83,3.66-4,4.44-2.45.89-5.64,1.36-7.51,2.15-1,.41-4.68,4-5.2,1.22-.38-2,1.83-1.42,2.3-3.06-2.38-.46-4.58,1-6.74,1.84-3.08,1.16-8.3,1.9-9,5.36-.15.69.3,2-.15,2.45s-2.57.44-3.53.77c-1.48.5-2.76,1.58-3.68,1.83-.69.19-1.7.14-2.14.31-1.22.47-1.67,2.12-3.06,3.22-.58.45-1.84.77-2.3,1.22-.79.79-.9,2.77-2.3,3.07-.89.07-1.61-.67-2.45-.16-.1,2,.69,4.61-.15,6.59a41.73,41.73,0,0,1-6.13,3.83c-1.28.72-2.43.91-4,1.69-1.1.55-2.11,1.85-3.37,2.6-2.93,1.72-6.46,3.76-6.44,8.12,0,.94.49,2,.61,3.06.08.65-.07,1.29,0,2,.19,1.6,1.35,3.64,0,4.74-2.06-.85-4.68-1.13-6.12-2.6-.4-1.51.79-2.76.61-4.14-.14-1.1-1.7-3.07-2.6-3.22s-1.8.85-2.76.77c-1.14-.09-2.21-1.67-3.68-1.84-2.15-.25-3.74.49-6.13.16-2.31,1.23-3,3.43-5.81,3.21-1-.07-1.91-.83-3.07-1.07a19,19,0,0,0-4.44-.61c-2.61.17-4.5,2-6.74,3.21-2,1-4.77,2.31-5.36,4.45-.32,1.15,0,2.76-.46,3.83a19.78,19.78,0,0,1-1.23,2c-1.72,3.13-3.14,7.28-1.84,11.79a27.27,27.27,0,0,0,2.61,5.21,8.51,8.51,0,0,0,4.44,2.15,19.41,19.41,0,0,0,3.52-.77,35.05,35.05,0,0,0,4-.61c3.31-1.06,2.65-5.54,6-7.05a15.81,15.81,0,0,1,5.67-.92,3.43,3.43,0,0,1,1.07,2.91c-.08.78-.83,1.49-1.22,2.61s-.43,2.12-.77,2.91c-.46,1-1.47,1.79-1.84,2.76-.24.63-.11,1.41-.3,2-.36,1-1.71,1.73-1.08,2.76,3.28,1.31,7.25-.37,10.11.16,1.21.22,3.7,1.66,3.68,3.52,0,1.39-1.08,2.31-1.23,3.83-.18,1.92-1,4.27-1.07,5.82-.13,2.54,3.73,6.93,6.43,6.89,2.92,0,4.61-2.89,8.12-1.37,1.17.5,2.4,2.39,3.68,2.29,1.06-.07,2.66-1.93,3.37-3.22.86-1.56.93-2.88,2.45-3.67s3-.44,5.06-1.23a11.67,11.67,0,0,0,2.6-1.53c.74-.51,1.52-1.85,2.45-.92,1.22,1.22-1.5,1.91-.46,3.22,2.12,1.13,3.21-2.09,4.75-2.14a10.68,10.68,0,0,1,3.07,1.53c1.19.78,1.6,1.89,2.9,2.14.84.17,2.19-.32,3.37-.15,1.57.22,2.5,1.56,3.68,1.53,1.45,0,2.14-1.61,3.37-1.84,2.71-.49,3.71.3,4.9,2,1.34.24,1.38-1.54,2.61-.91-.67,1.33.22,1.95.76,3.06.35.72.29,1.22.62,1.53.73.7,2.14.7,3.21,1.38s1.77,2,3.07,3.52,3.57,3.11,5.36,3.22,3-.48,4.44-.31c3.17.39,5.14,2,7.36,3.68,1.23,1,2.35,1.61,2.75,2.76.28.79.14,1.86.46,2.75.68,1.91,3.46,2.83,2.45,6.13.46,1,1.5,1.32,2.61,2,.89.55,1.64,1.69,2.6,1.84a17.13,17.13,0,0,0,1.84-.15,14,14,0,0,1,4.44,1.38,17.78,17.78,0,0,1,2.76.92c.78.52.88,2.29,1.84,2.75.62.31,2-.11,3.06,0,1.65.2,3.88,1.2,5.36,1.23.9,0,1.65-.37,2.45-.31,3.75.29,5.88,4.78,9.5,6.13,1.12.42,2.9.13,3.68.46,1.35.59,2.5,4.74,2.6,6.58.31,5.57-4,7.36-6.43,11-.52.77-.8,2-1.53,3.06-1.47,2.16-3.11,2.61-2.91,6.59,0,1.09.61,2.15.61,3.37a22.19,22.19,0,0,1-.46,4.75c-.25,1-1.09,1.83-1.23,2.76s.28,1.65.16,2.45a14.79,14.79,0,0,1-1.69,3.36c-1.42,2.62-1.73,5.69-4.6,6.74-1.68.62-4,.28-5.81.92-.75.27-1.7.95-2.61,1.38-2.67,1.24-6.47,2.92-7.2,5.67-.65,2.45.91,4.4.46,7.2a25.5,25.5,0,0,1-1.84,2.6c-.66.87-1,1.9-1.68,2.76-.93,1.15-2.36,1.67-2.91,3.22-.19.53-.07,1.15-.31,2-.09.31-.65.79-.92,1.38s-.24,1.24-.46,1.69c-.7,1.41-2.78,4.62-4.29,5.05-3.18.89-6.53-1.35-8.73-.92.32,1.53,1.43,1.37,2.15,2.45a15.82,15.82,0,0,0,1.22,2.14c.69.8,1.29,1.09,1.38,2a5.48,5.48,0,0,1-2.3,4.44,14,14,0,0,1-4.44,1.22c-1.14.19-4.06.2-4.6.93-.79,1.06.42,3.69-.15,4.74-1.14,2.24-4.22-.06-5.82.61a2.93,2.93,0,0,0,1.22,2.91c1,.57,2.43-.17,3.07.92-.32,1.53-1.95,1.73-2.3,3.22,0,1.47.49,1.85.31,2.76-.4,2-3.46,1.88-3.37,4,.13,3.14,6,1.85,6.12,4.91.07,1.85-1.68,1.87-2.29,3.67-.33,1,.19,1.19,0,2-.26,1.09-1.54,1.4-1.54,2.6,0,1.47,2.15,3.08,3.22,4.29a17.16,17.16,0,0,0,3.83,3.68c2.15,1.19,5.35.92,6.28,3.07-.29,1.28-1.53,1.63-2.76,2h-.3a3.62,3.62,0,0,0-2.3,0h-2.14c-2-.94-4.54-1.55-7-2.44-.91-.33-1.93-1.09-2.91-1.53-.74-.34-1.57-.47-2.15-.77-1.32-.69-2.8-2.94-4.13-3.83-.81-.54-2.08-.83-2.61-1.38a23.61,23.61,0,0,1-1.22-2.3c-.5-.7-1.41-1.22-2-2-1.28-1.69-2.9-4-2.91-5.21s1.16-2.06.76-3.21-2.72-.85-3.06-2.15c-.21-.78.68-2.1.61-3.21,0-.65-1.24-1.53-.77-2.46s1.59.09,2.46-.46c-.65-2.21.05-5.77-2.15-6.43-1.13.95,1.15,3.09-.77,3.68-1.85-.83-1.42-3.27-1.83-5.06a19.57,19.57,0,0,1-.92-3.52,18.91,18.91,0,0,0,.15-2.14c-.33-2.07-2.62-3.76-2.76-5.83-.06-1,.61-1.84.77-2.91.11-.72-.1-1.53,0-2.29.13-1,.67-1.87.76-2.76a23.81,23.81,0,0,0-.3-6c-.38-1.77-1.78-3.27-2-5.2-.08-.7.23-1.87.15-2.76s-.53-1.66-.61-2.61a17.38,17.38,0,0,1,.31-2.76c.16-1.92-.38-4.06-.31-6,0-.56.31-1,.31-1.53,0-1.58-.55-3.18-.62-4.75-.12-2.91.32-5-.15-7.66-.36-2-.8-5.15-1.53-6.43-.82-1.43-4-3.85-5.67-4.75-1.07-.6-2.36-.8-3.52-1.38-2.5-1.22-7.33-3.81-8.43-6.28-.32-.72-.27-1.66-.61-2.45-.67-1.57-2.07-2.93-3.07-4.45-1.89-2.89-3.42-6.51-5.36-9.49a36.28,36.28,0,0,0-2.91-4.44c-.63-.72-2.65-1.38-2.91-2.46-.34-1.41-1.39-3.36-1.22-4.44.22-1.46,3.06-2.65,3.06-4,0-1.14-1.52-1.8-1.84-2.76-.77-2.34.46-3.71,1.38-5.67.31-.64.6-1.67.92-2.14.56-.84,1.7-1.08,2.45-2,.42-.51.68-1.58,1.23-2.3,1.16-1.55,3-2.13,3.52-3.52a29.16,29.16,0,0,0,.15-8.73c-.27-1.1-1.29-2-1.68-3.07-.69-1.85-.86-3.87-2.76-3.83-1.18,0-2,1.33-2.76,2.15-.18,1.09-.08,2.27-1.22,2.6-1.75.51-2.41-1.84-4.45-2.45-.8-.25-2.09-.23-2.6-.46-1.48-.67-2-2.84-3.52-3.68-1.31-.7-2.43-.46-3.22-1.53-.33-.74-.07-2.08-.15-3.07-1.68-1-3.11-4.64-5.06-5.51-1.29-.57-3.28-.52-4.9-1.07a17.67,17.67,0,0,0-2.15-.76,13.61,13.61,0,0,1-2.75-.62c-3-1.51-4.67-6.38-8.43-6.28-1.6,0-3.14,1.54-4.59,1.53s-3.86-1.15-5.67-2-4-1.35-5.52-2.14c-1.25-.64-2.12-1.82-3.21-2.3-.84-.38-2.07-.44-2.76-.77a29.19,29.19,0,0,1-3.22-2.3c-1.15-.8-2.4-2-2.45-3.06,0-1.2,1.1-2.22,1.23-3.37.39-3.65-2.3-6.27-4-8.43-1.25-1.6-2.72-3-4-4.44a10.93,10.93,0,0,0,0-2.14,30.05,30.05,0,0,1-2.76-3.68c-.9-1.25-2.68-2.58-2.9-4-.29-1.72.65-3.23,0-4.9-1.1-2.78-4.94-1.52-4.45,2.14.14,1,1.56,2.37,2,3.37s.36,2.3.77,3.53,1.58,2.19,2,3.52c.65,2.1.63,4.36,1.23,5.67s2.46,2.26,1.37,3.67c-1.45.3-2-1.15-2.9-2-.51-.47-2.33-1.36-2.61-2.45-.23-.9.57-2.11.31-3.22-.53-2.16-4.89-2.21-4.91-4.44,0-1.39,1.83-1.56,1.84-2.91s-2-2.73-2.45-4A23.13,23.13,0,0,1,65,145a28.28,28.28,0,0,0-.31-4.44,7.21,7.21,0,0,0-2.91-3.07c-1.34-.74-2.4-.43-3.06-1.53a12.52,12.52,0,0,1-1.07-4c-.22-1.84-.05-3.85-.16-5.82a29.77,29.77,0,0,1,0-6c.76-1.48,2.14-2.22,2.91-3.68.54-1,.62-2.28,1.23-3.37,1.12-2,3.56-3.85,5.21-5.82a27.37,27.37,0,0,0,4.44-6.59c.37-.86,1.37-2.77,1.22-3.83-.2-1.47-3-2.69-2.75-4.44.14-1.09,1.68-1.07,2.14-2.14a10.77,10.77,0,0,0,.46-2.76c0-1.48-.75-3-.46-4.6.25-1.34,2.26-1.89,1.23-3.37s-2.86.79-4-.15.2-1.92.3-3.53c0-.63-.37-1.36-.3-1.83.09-.69,1.42-1.84,1.07-2.3-.83-1-1.76-3.71-3.53-4.6-2.24-1.13-4.68-.36-7.81-.92-1.92-.33-2.82-2.13-4.59-2-1.09.08-1.72,1.33-3.22,2s-3.43.43-4.9.77-2.17,1.35-3.68,1.23c-1.26-.1-1.27-1.24-2.76-1.38a23.81,23.81,0,0,0-2.6.46,35.11,35.11,0,0,1-9-.16,26,26,0,0,1-6-2.29C20.24,64.07,16.85,63,17,61.7c.09-.86,3.21-1.77,4.44-2.15,2-.6,3.23-1.58,4.75-1.68.59,0,1.36.36,2.15.31s1.75-.78,2.75-.92c2.14-.3,5.16.11,4.91-2-1.63-1.29-8.26.95-8.43-1.84-.1-1.69,2.51-2.2,4.45-2.61a30.12,30.12,0,0,1,6-.92c1.75.09,4,2.05,5-.15.49-1.56-.59-2.87-.92-4.14,1.3-1.79,3.7-1.57,5.52-1.83a22.39,22.39,0,0,0,5.82-1.54,22.51,22.51,0,0,1,5.82-1.53c2.08-.27,4.1-1.05,6-1.22a43,43,0,0,0,4.44-.31c1.31-.25,2.69-1,4.14-.92,1,.05,1.78.75,2.75.92s2,0,2.91.15c.74.16,1.41.66,2.15.77,1.16.18,2.4-.16,3.52,0s1.9.79,2.91.92c2.36.3,5.06-.13,7.35.31.87.16,1.66.59,2.61.76s1.88,0,2.75.15c1.22.25,2.24,1.4,3.53,1.54,2.37.24,5-1,7.5-1.23a43.47,43.47,0,0,0,5.52-.31,36.86,36.86,0,0,1,4.9-1.07c.84,0,1.54.26,2.3.16s1.74-1.06,2.6-.92c1.14.18.94,1.62,2.15,2,1.33-.69,2.66.05,4.13,0s2.72-.71,4.29-.46c2.79.44,6.69,3.17,8.89,1.68.55-.37.42-1,.92-2,.67-1.32,2-2.87,1.68-4.75-3.07,0-6,1.55-9.5,1.69-3.53-2.21,1-3.59,3.53-4.6,2.12-.83,3.81-2.69,6.43-3.06,2.15-.31,4.5.47,7.05.77,1.48.17,3-.11,3.83.15,1.5.45,2.28,1.94,3.52,2.29.54.16,1.42.14,2.14.31,1.38.32,2.62,1,4,0,1.08.2,1.21,1.35,2.3,1.54,1-.55,1.8-1.95,3.37-2.3.68-.16,1.39.11,2.14,0,1.25-.2,2.91-1.89,3.68-.31-.32,1.1-2,1.27-2.92,2.14s-2.09,2.57-2,3.37c.18,1.47,2.37.9,2.44,2.76-.32,1.07-1.57.59-2.6,1.07s-1.29,1.35-2.3,1.54c-2.78.52-5.09-.7-7.5-.62-.11,1.05,1.19,1.66,1.84,2,2.18,1.15,4,1,7,.92,1.58,0,3.39.48,4.75-.46.86-.58.81-1.88,1.53-2.6a5.9,5.9,0,0,1,4.14-1.53c.69.11,1.67.94,1.68,1.53,0,1.39-2,1-2,2.45,1.3.78,4.72-.85,4.9-2.14.14-1-1.11-1.49-1.07-2.45.08-1.61,2.26-1.58,2-3.22-1-.83-2.15.18-3.21,0-1.51-.25-2.86-2.06-3.53-3.22.67-.82,2.06-.27,3.07-.15,1.12-1.56,3.22-2.17,6.12-2.45,1-.1,2.41-.51,2.92.46.24,1.45-2.15,2.32-1.69,4,2.06.52,2.74-2.27,4.44-3.37a16.45,16.45,0,0,1,2.91-1.22c1-.36,2-1.25,2.76-1.23s1,.72,1.84,1.07,1.74-.22,2,.77c-1.77,3.07-8.39,1.3-10.11,4.44.38,2.1-1,4.1.15,5.51.85,1,2.77.33,3.22,1.38.6,1.41-1.86,1.41-1.22,3.07,1.62,1,3.55-.93,5.05-1.69s3.64-1.78,3.83-3.68c-.81-1.55-3.83-.35-4.29-2-.25-.89.93-2.89,1.22-3.22,1.6-1.79,7.18-4.34,11.19-4,.76.07,1.53.54,2.3.62,2.63.27,5.74-1.14,7.81,0,1.66-1,3.66.13,6-.16,1.79,1.05,1.29,3.29,4,4.29.73.27,1.64.08,2.6.31.71.17,1.48,1,2.3,1.38,1.16.53,2.05.41,2.3,1.22s-.85,1.32-.77,2.15c.66.54.11,1.36.46,2.14.66,1.42,2.33,1.32,4,2,1.16.48,3.64,1.94,3.52,3.07-.07.76-2.32,2.09-3.06,2.45-.52.26-3.11,1.5-4,1.38-1.45-.22-2-3.14-4-3.07A1.65,1.65,0,0,0,240,52.05c0,2,2.25,2.09,2.3,3.83.06,2.08-1.14,2.22-2.91,3.52a12.6,12.6,0,0,0-4-1.38c-1,1.17,1.61,1.58.77,3.07-2.46.52-4.34-.7-6.58-1.38a12.82,12.82,0,0,1-2.3-.46c-.87-.5-1.13-2-1.84-2.76s-2.48-2.15-3.83-2.14c-1.89,0-4.63,2.35-6.13.15,1-3.51,5.95-.91,9.19-2.14,1.21-.46,1.62-1.74,2.61-2.3,2-1.13,5.2-1.29,4.9-3.53-.15-1.12-1.73-1.11-2.6-1.68-1.2-.78-2.12-3.54-3.83-3.68-.89-.07-1.52.68-2.46.77-2,.18-4.18-.8-6,0-.83.47-.27,1.24-.92,2.14-.53.74-1.8,1-2.3,1.69s-.47,1.93-1.22,2.6c-1.26,1.12-3.92,1.29-5.52,1.84-.71.24-1.61,1.08-2.29,1.07-1.27,0-1.81-1.7-3.22-1.07-.13,1.64,1.73,2.3,2.91,3.06s2.61,1.64,3.06,3.07c-1.25,2.64-3.23-.14-5.21-.15-2.17,0-5.34,4.13-7.2.76.46-1.79,2.43-2.06,2.91-3.83-2.16.37-4,2.19-6.58,2.76-1.07.24-2.11.18-3.07.46-1.83.53-3.11,1.89-5.05,2.6-.76.28-1.66.2-2.45.46a41.69,41.69,0,0,0-6,2.76,33.33,33.33,0,0,0-5.36,3.22c-.65.56-2.35,2.57-2.29,3.21.07.91,1.79,1.22,1.83,2.15,0,.56-1,1.78-.3,2.6s1.88.14,3.21.31c2.34.29,3.87,2.22,5.67,3.22a15.72,15.72,0,0,0,4.9,1.83c2.11.27,4.46-.61,4.75,1.07s-2,2.21-2.14,3.22c1.13,1.5-.77,2.22-.77,3.53a3.33,3.33,0,0,0,2.45,2.75c1.54.13,3.8-1.52,4.44-3.06.77-1.84.44-4.33,1.84-5.67,7.14.2,13.18-3.24,12.72-10.57a9.79,9.79,0,0,1-.31-2.45c.23-1.18,2.26-2.18,2-3.68,2-.61,1.91-3.82,4-4.29,1.74-.39,3.7,1.23,6,1.08.74-.05,1.7-.72,2.45-.62,1.5.21,2.4,2.06,3.52,2.91s2,.52,2.3,1.54c-.3,1.71-1.5,1.76-1.38,3.37a3.3,3.3,0,0,0,2.3,2.6,7.32,7.32,0,0,0,3.83-.92c2.05-1,3.8-3.89,5.51-3.52,1.35.29,2.41,4.58,2.61,6.13s-.23,2.92-.15,4.44c.19,2.58,3.45,2.32,5.05,3.68.48.41.67,1.45,1.07,2,.78,1,1.72,1,1.84,2.14.29,2.65-2.4,2.87-2.15,5.82-.55,1.15-1.95,1.08-1.83,2.61.18,2.41,3.65.56,4.59,2.45.51,1-.08,1.77-.46,3.21,1.19,1.42,1.18,3.68-.91,3.68C244.74,102.14,244.39,100.77,243.1,100.45Zm-165.59-4c.72-.74-.3-2.31-1.38-1.68C76,95.35,76.33,96.7,77.51,96.47Zm106.93,13.94c-.64-.62-2.72-.44-4.14-.3-1,.1-2.2.31-2.3,1.07C179.59,111.91,183.94,112.44,184.44,110.41Zm-8-2.6a1.88,1.88,0,0,0-.61-3.22c-.51-.13-1.18.37-2,.31s-1.73-.86-2.45-.92a3.67,3.67,0,0,0-2.91,1.07c0,.92.68,1.06.62,2-1.49,1.07-.7,4.62.76,4.75s2.36-3.93,4.44-4.29C175.08,107.37,175.46,107.93,176.47,107.81Zm-2.15,6.13c-2.17-.78-4.19.52-6,.76-1.06.14-3-.21-2.76,1.38.2,1.3,2.21.83,3.37.46A14.64,14.64,0,0,0,174.32,113.94Zm-6.73-11.65c3-1.3-.61-5.3-2-5.67-2.48-.64-6,1.83-8.88,2.61-1.62.44-3.16.48-3.53,1.84,1.45,2.4,4.32-.53,6.44-.16,1.07.19,1.69,1.66,2.75,1.84A30.8,30.8,0,0,0,167.59,102.29Zm-2.15,2.45c-.64-.74-4.07.09-5.06.77-.68.47-1.14,1.61-1.84,2.45s-1.53,1.55-2.14,2.3-3.65,5.16-1.22,5.67c1,.21,3.16-1.94,3.36-2.76a9.22,9.22,0,0,1,4.14-6.13C163.94,106.28,165.23,106.38,165.44,104.74ZM146.29,87.59c1.71-.06,2.87-5.12,0-4.45C144.37,83.59,143.91,87.67,146.29,87.59ZM138,202.48c.08-.23.22-.39.3-.62C137.86,200.34,136.39,202.42,138,202.48ZM73.22,74.26c0-.29-.17-.34-.15-.61-.47,0-1-.09-.92.46A.63.63,0,0,0,73.22,74.26Zm161-24.05c.76.09,1.18-.15,1.07-.92C234.61,48.81,233.62,49.44,234.22,50.21Zm-17.62-15a.75.75,0,0,0-.92,0v.61C216.33,36,216.45,35.56,216.6,35.2ZM158.39,47c.51-.32,1.3-.77.92-1.53-1.69-.79-4.55-.19-7-.46-1.42-2-3.79-2.31-4,.92C151.13,48.24,155.45,44.84,158.39,47ZM131,62.77c.87-.3,2.08-.14,2.3-1.07-.72-.57-1.45-1.35-2.3-1.38-1.11,0-1.64.94-2.76,1.53-1.29.69-3.09.85-3.21,2C127.37,64.31,129.51,63.28,131,62.77Zm-.76-11c1-.17,2,.28,2.6-.61-.73-3.37-5.39-1.31-8.12-1.07a7.74,7.74,0,0,0-1.53,3.06C125.27,53.66,127.82,52.15,130.21,51.74ZM176.16,208.3c1.21-.2.86-3-.61-2.3C174.44,206.51,175,208.48,176.16,208.3Z"/><path class="cls-2" d="M73.07,73.65c0,.27.19.32.15.61a.63.63,0,0,1-1.07-.15C72.06,73.56,72.6,73.64,73.07,73.65Z"/><path class="cls-2" d="M68.47,82.69a3.23,3.23,0,0,1-2.14,1.83,3.7,3.7,0,0,1-.77-.76C65.63,82.3,67.7,81.23,68.47,82.69Z"/></g></svg>